<svg width="710" height="720" viewBox="0 0 710 720" fill="none" xmlns="http://www.w3.org/2000/svg">
<path d="M483 724.275C483 857.269 375.268 966 241.5 966C107.732 966 0 858.167 0 724.275L0 241.725C0 107.833 107.732 0 241.5 0L724.5 0C857.37 0 966 107.833 966 241.725C966 374.718 858.268 483.449 724.5 483.449C590.732 483.449 483 591.282 483 724.275Z" fill="white" fill-opacity="0.06"/>
<path d="M843.904 839.297H715.523C648.19 839.297 594.324 784.482 594.324 717.985C594.324 650.59 649.088 596.674 715.523 596.674H843.904C911.237 596.674 965.103 651.489 965.103 717.985C965.103 785.381 911.237 839.297 843.904 839.297Z" fill="white" fill-opacity="0.06"/>
</svg>
