<svg width="41" height="40" viewBox="0 0 41 40" fill="none" xmlns="http://www.w3.org/2000/svg">
<path d="M5.66666 15V9.99999C5.66666 8.15832 7.15832 6.66666 8.99999 6.66666H32.3333C34.175 6.66666 35.6667 8.15832 35.6667 9.99999V30C35.6667 31.8417 34.175 33.3333 32.3333 33.3333H22.3333" stroke="white" stroke-width="1.5" stroke-linecap="round" stroke-linejoin="round"/>
<path d="M15.6667 33.3333L15.2483 32.2833C15.0367 31.7517 14.7083 31.2733 14.2883 30.885C13.5767 30.225 12.6417 29.86 11.6733 29.86H7.99332C7.02332 29.86 6.08999 30.2267 5.37832 30.885C4.95832 31.2733 4.62999 31.7517 4.41832 32.2833L3.99999 33.3333" stroke="white" stroke-width="1.5" stroke-linecap="round" stroke-linejoin="round"/>
<path d="M11.895 20.855C13.0333 21.9933 13.0333 23.84 11.895 24.98C10.7567 26.1183 8.90999 26.1183 7.76999 24.98C6.63165 23.8417 6.63165 21.995 7.76999 20.855C8.90999 19.715 10.7567 19.715 11.895 20.855Z" stroke="white" stroke-width="1.5" stroke-linecap="round" stroke-linejoin="round"/>
<path d="M19 25V15" stroke="white" stroke-width="1.5" stroke-linecap="round" stroke-linejoin="round"/>
<path d="M24 25V19.4666" stroke="white" stroke-width="1.5" stroke-linecap="round" stroke-linejoin="round"/>
<path d="M29 25V15.9167" stroke="white" stroke-width="1.5" stroke-linecap="round" stroke-linejoin="round"/>
</svg>
