<svg width="40" height="40" viewBox="0 0 40 40" fill="none" xmlns="http://www.w3.org/2000/svg">
<path d="M7.78333 28.6817C8.75666 30.0483 9.95166 31.2433 11.3183 32.2167" stroke="white" stroke-width="1.5" stroke-linecap="round" stroke-linejoin="round"/>
<path d="M5.225 17.5C5.08833 18.315 5 19.1467 5 20C5 20.8533 5.08833 21.685 5.225 22.5" stroke="white" stroke-width="1.5" stroke-linecap="round" stroke-linejoin="round"/>
<path d="M7.78333 11.3183C8.75666 9.95001 9.94999 8.75668 11.3183 7.78168" stroke="white" stroke-width="1.5" stroke-linecap="round" stroke-linejoin="round"/>
<path d="M17.5 34.775C18.315 34.9117 19.1467 35 20 35C28.285 35 35 28.285 35 20C35 11.715 28.285 5 20 5C19.1467 5 18.315 5.08833 17.5 5.225" stroke="white" stroke-width="1.5" stroke-linecap="round" stroke-linejoin="round"/>
<path d="M26.6666 16.6667L18.3333 25L13.3333 20" stroke="white" stroke-width="1.5" stroke-linecap="round" stroke-linejoin="round"/>
</svg>
