<svg width="41" height="40" viewBox="0 0 41 40" fill="none" xmlns="http://www.w3.org/2000/svg">
<path d="M12.9233 18.3333H6.99999C5.15832 18.3333 3.66666 16.8417 3.66666 15V6.66668C3.66666 4.82501 5.15832 3.33334 6.99999 3.33334H33.6667C35.5083 3.33334 37 4.82501 37 6.66668V15C37 16.8417 35.5083 18.3333 33.6667 18.3333H17.9233" stroke="white" stroke-width="1.5" stroke-linecap="round" stroke-linejoin="round"/>
<path d="M17.9233 21.6667V14.1667C17.9233 12.7867 16.8033 11.6667 15.4233 11.6667C14.0433 11.6667 12.9233 12.7867 12.9233 14.1667V18.3334V26.6667L11.4216 25.165C10.41 24.1534 8.76998 24.1534 7.75831 25.165C6.88498 26.0384 6.74998 27.4067 7.43498 28.4334L11.9333 35.1817C12.5516 36.11 13.5933 36.6667 14.7083 36.6667H23.5216C25.2033 36.6667 26.62 35.415 26.83 33.7467L27.7333 26.5184C27.955 24.74 26.7316 23.1034 24.9633 22.815L17.9233 21.6667V21.6667Z" stroke="white" stroke-width="1.5" stroke-linecap="round" stroke-linejoin="round"/>
<path d="M31.1667 9.16669L27 13.3334L24.5 10.8334" stroke="white" stroke-width="1.5" stroke-linecap="round" stroke-linejoin="round"/>
</svg>
